<svg xmlns="http://www.w3.org/2000/svg" viewBox="0 0 32 32"><g transform="translate(0 -1020.362)"><path fill="#e9eded" fill-rule="evenodd" stroke="#25b39e" stroke-linecap="round" stroke-linejoin="round" d="M26.496 1027.866v21.5c0 .83-.669 1.5-1.5 1.5h-18c-.83 0-1.5-.67-1.5-1.5v-26c0-.831.67-1.5 1.5-1.5h13.5z"/><path fill="#25b39e" stroke="#25b39e" stroke-linecap="round" stroke-linejoin="round" d="M26.496 1027.866h-4.5c-.83 0-1.5-.67-1.5-1.5v-4.5"/><path fill="#25b39e" d="M5.004 1044.366v3h.181c-.11.314-.181.647-.181 1 0 1.662 1.338 3 3 3h16c1.662 0 3-1.338 3-3 0-.353-.071-.686-.182-1h.182v-3h-22z"/><path fill="#25b39e" fill-rule="evenodd" d="m7 1042.366 5-7 5 7z"/><path fill="#25b39e" fill-rule="evenodd" d="m11 1042.366 7-10 7 10z"/><circle cx="11" cy="1031.366" r="2" fill="#fcd062"/><path fill="#e9eded" d="M9.578 25.004c-.863 0-1.574.71-1.574 1.574v1.852c0 .863.71 1.574 1.574 1.574h.852a1.58 1.58 0 0 0 1.55-1.348.5.5 0 0 0 .024-.158v-.986a.5.5 0 0 0 0-.008.5.5 0 0 0 0-.008.5.5 0 0 0-.002-.035.5.5 0 0 0-.023-.113.5.5 0 0 0-.012-.032.5.5 0 0 0-.006-.015.5.5 0 0 0-.004-.006.5.5 0 0 0-.045-.08.5.5 0 0 0-.021-.027.5.5 0 0 0-.01-.012.5.5 0 0 0-.024-.026.5.5 0 0 0-.011-.011.5.5 0 0 0-.006-.006.5.5 0 0 0-.162-.098.5.5 0 0 0-.033-.012.5.5 0 0 0-.016-.003.5.5 0 0 0-.033-.008.5.5 0 0 0-.065-.008.5.5 0 0 0-.035 0h-.986a.5.5 0 1 0 0 1h.494v.426a.563.563 0 0 1-.574.574h-.852a.563.563 0 0 1-.574-.574v-1.852c0-.326.248-.574.574-.574h1.926a.5.5 0 1 0 0-1H9.578zm3.918 0a.5.5 0 0 0-.492.506v3.988a.5.5 0 1 0 1 0V25.51a.5.5 0 0 0-.508-.506zm3.082 0c-.863 0-1.574.71-1.574 1.574v.883a.5.5 0 0 0 0 .074v1.969a.5.5 0 1 0 1 0v-1.5h1a.5.5 0 1 0 0-1h-1v-.426c0-.326.248-.574.574-.574h.926a.5.5 0 1 0 0-1h-.926z" color="#000" font-family="sans-serif" font-weight="400" overflow="visible" transform="translate(0 1020.362)" style="line-height:normal;text-indent:0;text-align:start;text-decoration-line:none;text-decoration-style:solid;text-decoration-color:#000;text-transform:none;block-progression:tb;isolation:auto;mix-blend-mode:normal"/></g></svg>