<svg xmlns="http://www.w3.org/2000/svg" viewBox="0 0 32 32"><path fill="#e9eded" fill-rule="evenodd" stroke="#25b39e" stroke-linecap="round" stroke-linejoin="round" d="M26.496 7.504v21.5c0 .83-.669 1.5-1.5 1.5h-18c-.83 0-1.5-.67-1.5-1.5v-26c0-.831.67-1.5 1.5-1.5h13.5z"/><path fill="#25b39e" stroke="#25b39e" stroke-linecap="round" stroke-linejoin="round" d="M26.496 7.504h-4.5c-.83 0-1.5-.67-1.5-1.5v-4.5"/><path fill="#25b39e" d="M6 24.004h20v6H6z"/><path fill="#e9eded" d="M10.492 25.002v.002a.5.5 0 0 0-.492.508v2.992c0 .286-.214.5-.5.5a.488.488 0 0 1-.5-.5.5.5 0 0 0-.508-.506.5.5 0 0 0-.492.506c0 .822.678 1.5 1.5 1.5.774 0 1.411-.603 1.484-1.36a.5.5 0 0 0 .016-.132V25.51a.5.5 0 0 0-.508-.508zm3.008.002c-.774 0-1.411.603-1.484 1.36l-.002.009a.5.5 0 0 0-.014.125v3.004a.5.5 0 1 0 1 0v-1.588c.157.057.324.094.5.094.823 0 1.5-.678 1.5-1.5 0-.823-.677-1.5-1.5-1.5v-.004zm4.074 0c-.863 0-1.574.71-1.574 1.574v1.852c0 .863.71 1.574 1.574 1.574h.852c.786 0 1.44-.592 1.55-1.35a.5.5 0 0 0 .024-.156v-.986a.5.5 0 0 0-.34-.48.5.5 0 0 0-.047-.014.5.5 0 0 0-.05-.01.5.5 0 0 0-.05-.004.5.5 0 0 0-.019 0 .5.5 0 0 0-.002 0h-.984a.5.5 0 1 0 0 1H19v.426a.563.563 0 0 1-.574.574h-.852A.563.563 0 0 1 17 28.43v-1.852c0-.326.248-.574.574-.574H19.5a.5.5 0 1 0 0-1h-1.926zM13.5 26v.004c.282 0 .5.218.5.5 0 .282-.218.5-.5.5a.493.493 0 0 1-.5-.5v-.01a.493.493 0 0 1 .5-.494z" color="#000" font-family="sans-serif" font-weight="400" overflow="visible" style="line-height:normal;text-indent:0;text-align:start;text-decoration-line:none;text-decoration-style:solid;text-decoration-color:#000;text-transform:none;block-progression:tb;isolation:auto;mix-blend-mode:normal"/><path fill="#25b39e" fill-rule="evenodd" d="m7 22.004 5-7 5 7z"/><path fill="#25b39e" fill-rule="evenodd" d="m11 22.004 7-10 7 10z"/><path fill="#f8b84e" d="M13 11.004a2 2 0 0 1-2 2 2 2 0 0 1-2-2 2 2 0 0 1 2-2 2 2 0 0 1 2 2z"/></svg>