<svg xmlns="http://www.w3.org/2000/svg" viewBox="0 0 32 32"><path fill="#e9eded" fill-rule="evenodd" stroke="#f45676" stroke-linecap="round" stroke-linejoin="round" d="M26.496 7.504v21.5c0 .83-.669 1.5-1.5 1.5h-18c-.83 0-1.5-.67-1.5-1.5v-26c0-.831.67-1.5 1.5-1.5h13.5z"/><path fill="#f45676" d="M5 24.004v5c0 1.108.892 2 2 2h18c1.108 0 2-.892 2-2v-5H5z"/><path fill="#f45676" stroke="#f45676" stroke-linecap="round" stroke-linejoin="round" d="M26.496 7.504h-4.5c-.83 0-1.5-.67-1.5-1.5v-4.5"/><path fill="#f45676" fill-rule="evenodd" d="M20.492 8.998a.5.5 0 0 0-.232.063l-7.908 1.593a.43.43 0 0 0-.344.455.5.5 0 0 0-.008.096v3.254a.43.43 0 0 0 0 .24v4.397a1.47 1.47 0 0 0-.5-.092c-.823 0-1.5.677-1.5 1.5 0 .822.677 1.5 1.5 1.5.783 0 1.427-.616 1.488-1.385a.5.5 0 0 0 .012-.115v-5.606l7-1.412v3.61a1.47 1.47 0 0 0-.5-.092c-.823 0-1.5.677-1.5 1.5 0 .822.677 1.5 1.5 1.5.783 0 1.427-.616 1.488-1.385a.5.5 0 0 0 .012-.115v-9a.5.5 0 0 0-.006-.078.43.43 0 0 0-.387-.416.5.5 0 0 0-.115-.012zM20 9.99v2.62l-7 1.411v-2.619l7-1.412zm-.5 8.014c.282 0 .5.218.5.5 0 .282-.218.5-.5.5a.493.493 0 0 1-.5-.5c0-.282.218-.5.5-.5zm-8 2c.282 0 .5.218.5.5 0 .282-.218.5-.5.5a.493.493 0 0 1-.5-.5c0-.282.218-.5.5-.5z" color="#000" font-family="sans-serif" font-weight="400" overflow="visible" style="line-height:normal;text-indent:0;text-align:start;text-decoration-line:none;text-decoration-style:solid;text-decoration-color:#000;text-transform:none;block-progression:tb;isolation:auto;mix-blend-mode:normal"/><path fill="#e9eded" fill-rule="evenodd" d="M11.459 24.992a.5.5 0 0 0-.367.207l-1.098 1.465L8.896 25.2l-.003.002a.5.5 0 0 0-.407-.199.5.5 0 0 0-.494.506v3.99a.5.5 0 1 0 1 0v-2.506l.524.7a.5.5 0 0 0 .879.105l.597-.799v2.5a.5.5 0 1 0 1 0v-3.945a.5.5 0 0 0-.482-.56.5.5 0 0 0-.051 0zm3.033.012c-.78 0-1.422.612-1.486 1.377a.5.5 0 0 0-.014.117v3a.5.5 0 1 0 1 0V27.91c.157.057.325.094.5.094.823 0 1.5-.678 1.5-1.5 0-.823-.677-1.5-1.5-1.5zm4.131.01v.002a1.562 1.562 0 0 0-1.59.869.5.5 0 1 0 .899.437.554.554 0 0 1 .568-.314.564.564 0 0 1 .285.996H18.5a.5.5 0 1 0 0 1h.29a.568.568 0 0 1-.294.996.552.552 0 0 1-.566-.316.5.5 0 1 0-.903.43c.286.6.925.956 1.584.88.66-.076 1.2-.568 1.344-1.217a1.574 1.574 0 0 0-.281-1.277c.263-.357.38-.81.283-1.26a1.566 1.566 0 0 0-1.334-1.226zm-4.13.99c.281 0 .5.218.5.5 0 .282-.219.5-.5.5a.493.493 0 0 1-.5-.5v-.006a.493.493 0 0 1 .5-.494z" color="#000" font-family="sans-serif" font-weight="400" overflow="visible" style="line-height:normal;text-indent:0;text-align:start;text-decoration-line:none;text-decoration-style:solid;text-decoration-color:#000;text-transform:none;block-progression:tb;isolation:auto;mix-blend-mode:normal"/></svg>