<svg xmlns="http://www.w3.org/2000/svg" viewBox="0 0 32 32"><path fill="#e9eded" fill-rule="evenodd" stroke="#f45676" stroke-linecap="round" stroke-linejoin="round" d="M26.496 7.504v21.5c0 .83-.669 1.5-1.5 1.5h-18c-.83 0-1.5-.67-1.5-1.5v-26c0-.831.67-1.5 1.5-1.5h13.5z"/><path fill="#f45676" d="M5 24.004v5c0 1.108.892 2 2 2h18c1.108 0 2-.892 2-2v-5H5z"/><path fill="#f45676" stroke="#f45676" stroke-linecap="round" stroke-linejoin="round" d="M26.496 7.504h-4.5c-.83 0-1.5-.67-1.5-1.5v-4.5"/><path style="line-height:normal;text-indent:0;text-align:start;text-decoration-line:none;text-decoration-style:solid;text-decoration-color:#000;text-transform:none;block-progression:tb;isolation:auto;mix-blend-mode:normal" fill="#f45676" d="M13.508 10.463v.002a.5.5 0 0 0-.508.5v7.072a.5.5 0 0 0 .79.408l4.991-3.537a.5.5 0 0 0 0-.814l-4.992-3.537a.5.5 0 0 0-.281-.094zM14 11.932l3.629 2.57L14 17.07v-5.138z" color="#000" font-family="sans-serif" font-weight="400" overflow="visible"/><path style="line-height:normal;text-indent:0;text-align:start;text-decoration-line:none;text-decoration-style:solid;text-decoration-color:#000;text-transform:none;block-progression:tb;isolation:auto;mix-blend-mode:normal" fill="#e9eded" fill-rule="evenodd" d="M11.455 24.988a.5.5 0 0 0-.367.207L9.992 26.66l-1.097-1.469a.5.5 0 0 0-.069-.072.5.5 0 0 0-.082-.058.5.5 0 0 0-.045-.024.5.5 0 0 0-.047-.017.5.5 0 0 0-.148-.026v.004a.5.5 0 0 0-.022 0 .5.5 0 0 0-.492.508v3.988a.5.5 0 1 0 1 0v-2.502l.516.688a.5.5 0 0 0 .885.115l.601-.803v2.502a.5.5 0 1 0 1 0v-3.976a.5.5 0 0 0-.486-.53.5.5 0 0 0-.05 0zm3.037.012c-.78 0-1.422.612-1.486 1.377a.5.5 0 0 0-.014.117v3a.5.5 0 1 0 1 0v-1.588c.157.057.325.094.5.094.823 0 1.5-.677 1.5-1.5s-.677-1.5-1.5-1.5zm4.994 0a.5.5 0 0 0-.494.508v.947a.5.5 0 0 0 0 .04V27.5h-.888l.378-1.895a.5.5 0 0 0-.496-.603.5.5 0 0 0-.484.408l-.48 2.399a.5.5 0 0 0 0 .002.5.5 0 0 0-.02.314.5.5 0 0 0 .63.375h1.36v.994a.5.5 0 1 0 1 0v-.953a.5.5 0 0 0 0-.033V28.5h.5a.5.5 0 1 0 0-1h-.5v-1.992a.5.5 0 0 0-.506-.508zm-4.994 1c.282 0 .5.218.5.5 0 .282-.218.5-.5.5a.493.493 0 0 1-.5-.5v-.006a.493.493 0 0 1 .5-.494z" color="#000" font-family="sans-serif" font-weight="400" overflow="visible"/></svg>