<svg xmlns="http://www.w3.org/2000/svg"  viewBox="0 0 32 32" fill="none">
<path fill-rule="evenodd" clip-rule="evenodd" d="M26.496 7.50397V29.004C26.496 29.834 25.827 30.504 24.996 30.504H6.996C6.166 30.504 5.496 29.834 5.496 29.004V3.00403C5.496 2.17303 6.166 1.50403 6.996 1.50403H20.496L26.496 7.50397Z" fill="#E9EDED" stroke="#25B39E" stroke-linecap="round" stroke-linejoin="round"/>
<path d="M5 24.004V29.004C5 30.112 5.892 31.004 7 31.004H25C26.108 31.004 27 30.112 27 29.004V24.004H5Z" fill="#25B39E"/>
<path d="M26.496 7.50397H21.996C21.166 7.50397 20.496 6.83397 20.496 6.00397V1.50403" fill="#25B39E"/>
<path d="M26.496 7.50397H21.996C21.166 7.50397 20.496 6.83397 20.496 6.00397V1.50403" stroke="#25B39E" stroke-linecap="round" stroke-linejoin="round"/>
<path fill-rule="evenodd" clip-rule="evenodd" d="M7 22.0001L12 15.0001L17 22.0001H7Z" fill="#25B39E"/>
<path fill-rule="evenodd" clip-rule="evenodd" d="M11 22.0001L18 12.0001L25 22.0001H11Z" fill="#25B39E"/>
<path d="M11 13.0001C12.1046 13.0001 13 12.1046 13 11.0001C13 9.89549 12.1046 9.00006 11 9.00006C9.89543 9.00006 9 9.89549 9 11.0001C9 12.1046 9.89543 13.0001 11 13.0001Z" fill="#F8B84E"/>
<path fill-rule="evenodd" clip-rule="evenodd" d="M8.5 25.0452C7.722 25.0452 7.082 25.6532 7.014 26.4152C7.00418 26.4557 6.99947 26.4974 7 26.5392V29.5392C7 29.6718 7.05268 29.7989 7.14645 29.8927C7.24022 29.9865 7.36739 30.0392 7.5 30.0392C7.63261 30.0392 7.75979 29.9865 7.85356 29.8927C7.94732 29.7989 8 29.6718 8 29.5392V27.9512C8.157 28.0082 8.324 28.0452 8.5 28.0452C9.323 28.0452 10 27.3682 10 26.5452C10 25.7222 9.323 25.0452 8.5 25.0452ZM9 26.5452C9 26.2632 8.782 26.0452 8.5 26.0452C8.43459 26.0442 8.36965 26.0563 8.30896 26.0808C8.24827 26.1052 8.19304 26.1414 8.14651 26.1874C8.09997 26.2334 8.06305 26.2882 8.0379 26.3486C8.01274 26.409 7.99986 26.4737 8 26.5392V26.5452C7.99906 26.6111 8.01135 26.6765 8.03614 26.7376C8.06094 26.7987 8.09773 26.8542 8.14435 26.9008C8.19097 26.9474 8.24646 26.9842 8.30755 27.009C8.36864 27.0338 8.43408 27.0461 8.5 27.0452C8.782 27.0452 9 26.8272 9 26.5452Z" fill="#E9EDED"/>
<path d="M16 26.5888C16 25.7248 16.711 25.0148 17.574 25.0148H19.5C19.6326 25.0148 19.7598 25.0675 19.8536 25.1613C19.9473 25.255 20 25.3822 20 25.5148C20 25.6474 19.9473 25.7746 19.8536 25.8684C19.7598 25.9621 19.6326 26.0148 19.5 26.0148H17.574C17.248 26.0148 17 26.2628 17 26.5888V28.4408C16.9985 28.5166 17.0123 28.5919 17.0406 28.6622C17.069 28.7325 17.1112 28.7964 17.1648 28.85C17.2184 28.9036 17.2823 28.9459 17.3526 28.9742C17.4229 29.0025 17.4982 29.0163 17.574 29.0148H18.426C18.5018 29.0163 18.5771 29.0025 18.6474 28.9742C18.7177 28.9459 18.7816 28.9036 18.8352 28.85C18.8888 28.7964 18.931 28.7325 18.9594 28.6622C18.9877 28.5919 19.0015 28.5166 19 28.4408V28.0148H18.506C18.3734 28.0148 18.2462 27.9621 18.1524 27.8684C18.0587 27.7746 18.006 27.6474 18.006 27.5148C18.006 27.3822 18.0587 27.255 18.1524 27.1613C18.2462 27.0675 18.3734 27.0148 18.506 27.0148H19.492C19.5037 27.0144 19.5153 27.0144 19.527 27.0148C19.5488 27.0161 19.5705 27.0187 19.592 27.0228C19.6031 27.0251 19.6141 27.0278 19.625 27.0308L19.641 27.0338C19.6521 27.0374 19.6631 27.0414 19.674 27.0458C19.7337 27.0679 19.7887 27.1011 19.836 27.1438L19.842 27.1498L19.853 27.1608C19.8613 27.1692 19.8693 27.1779 19.877 27.1868L19.887 27.1988C19.8943 27.2076 19.9013 27.2166 19.908 27.2258C19.9254 27.251 19.9405 27.2778 19.953 27.3058L19.957 27.3118L19.963 27.3268C19.9674 27.3373 19.9714 27.348 19.975 27.3588C19.987 27.3955 19.9947 27.4334 19.998 27.4718C19.9991 27.4835 19.9997 27.4951 20 27.5068V27.5148V27.5228V28.5088C20.0005 28.5624 19.9924 28.6158 19.976 28.6668C19.9207 29.0394 19.7342 29.3799 19.45 29.6271C19.1658 29.8742 18.8026 30.0117 18.426 30.0148H17.574C16.71 30.0148 16 29.3038 16 28.4408V26.5888Z" fill="#E9EDED"/>
<path d="M14.463 24.976C14.3906 24.9819 14.3204 25.0034 14.2572 25.0392C14.194 25.0749 14.0538 25.107 13.997 25.3027L14 29L11.901 25.179C11.8808 25.1528 11.858 25.1287 11.833 25.107C11.8077 25.085 11.7802 25.0655 11.751 25.049C11.7371 25.0403 11.7227 25.0323 11.708 25.025C11.6926 25.0186 11.677 25.0129 11.661 25.008C11.6133 24.9919 11.5634 24.9832 11.513 24.982V24.986C11.505 24.9858 11.497 24.9858 11.489 24.986C11.48 24.9864 11.471 24.9871 11.462 24.988C11.3345 24.9969 11.2153 25.0544 11.1288 25.1485C11.0423 25.2426 10.9952 25.3662 10.997 25.494V29.482C10.997 29.6146 11.0497 29.7418 11.1435 29.8356C11.2372 29.9293 11.3644 29.982 11.497 29.982C11.6296 29.982 11.7568 29.9293 11.8506 29.8356C11.9443 29.7418 11.997 29.6146 11.997 29.482V26.978L12.419 27.8684L12.9092 28.6622L13.5 29.6271C13.8211 30.0162 13.9468 29.9763 14 29.976H14.497C14.6296 29.976 14.7568 29.9233 14.8506 29.8296C14.9443 29.7358 14.997 29.6086 14.997 29.476V25.5C15.0011 25.433 14.9916 25.3659 14.9692 25.3027C14.9467 25.2394 14.9118 25.1814 14.8664 25.1319C14.8211 25.0825 14.7663 25.0426 14.7052 25.0148C14.6441 24.987 14.5781 24.9718 14.511 24.97C14.494 24.9691 14.477 24.9691 14.46 24.97L14.463 24.976Z" fill="#E9EDED"/>
</svg>