<svg xmlns="http://www.w3.org/2000/svg" viewBox="0 0 32 32"><path fill="#e9eded" fill-rule="evenodd" stroke="#2b4255" stroke-linecap="round" stroke-linejoin="round" d="M26.496 7.504v21.5c0 .83-.669 1.5-1.5 1.5h-18c-.83 0-1.5-.67-1.5-1.5v-26c0-.831.67-1.5 1.5-1.5h13.5z"/><path fill="#2b4255" d="M5 24.004v5c0 1.108.892 2 2 2h18c1.108 0 2-.892 2-2v-5H5z"/><path fill="#2b4255" stroke="#2b4255" stroke-linecap="round" stroke-linejoin="round" d="M26.496 7.504h-4.5c-.83 0-1.5-.67-1.5-1.5v-4.5"/><path fill="#2b4255" d="M13.5 11.004v2h-2.594c-.208-.58-.76-1-1.406-1-.823 0-1.5.677-1.5 1.5 0 .822.677 1.5 1.5 1.5.646 0 1.197-.422 1.406-1h1.389C10.267 15.182 9 17.25 9 19.504v.5h1v-.5c0-1.951 1.124-3.762 2.984-4.754.168-.09.342-.161.516-.234v1.488h5v-1.488c.174.073.348.145.516.234 1.86.992 2.984 2.803 2.984 4.754v.5h1v-.5c0-2.253-1.267-4.322-3.295-5.5h1.389c.209.578.76 1 1.406 1 .823 0 1.5-.678 1.5-1.5 0-.823-.677-1.5-1.5-1.5-.647 0-1.198.42-1.406 1H18.5v-2h-5zm1 1h3v1h-3v-1zm-5 1c.282 0 .5.218.5.5 0 .282-.218.5-.5.5a.493.493 0 0 1-.5-.5c0-.282.218-.5.5-.5zm13 0c.282 0 .5.218.5.5 0 .282-.218.5-.5.5a.493.493 0 0 1-.5-.5c0-.282.218-.5.5-.5zM16 14.006c.504 0 1.009.06 1.5.176v.822h-3v-.822a6.543 6.543 0 0 1 1.5-.176z" color="#000" font-family="sans-serif" font-weight="400" overflow="visible" style="line-height:normal;text-indent:0;text-align:start;text-decoration-line:none;text-decoration-style:solid;text-decoration-color:#000;text-transform:none;block-progression:tb;isolation:auto;mix-blend-mode:normal"/><path fill="#e9eded" d="M13.459 24.998a.5.5 0 0 0-.402.73l2 4a.5.5 0 0 0 .894 0l2-4a.5.5 0 1 0-.894-.447l-1.553 3.106-1.553-3.106a.5.5 0 0 0-.441-.283.5.5 0 0 0-.051 0zm-4.01.006a.5.5 0 0 0-.062.012c-.77.06-1.387.704-1.387 1.488 0 .79.628 1.44 1.406 1.49a.5.5 0 0 0 .094.01h1c.286 0 .5.214.5.5 0 .286-.214.5-.5.5h-2a.5.5 0 1 0 0 1h2a.5.5 0 0 0 .104-.012A1.503 1.503 0 0 0 12 28.504c0-.786-.62-1.434-1.393-1.49a.5.5 0 0 0-.107-.01h-1a.488.488 0 0 1-.5-.5c0-.286.214-.5.5-.5h2a.5.5 0 1 0 0-1H9.535a.5.5 0 0 0-.035 0 .5.5 0 0 0-.05 0zm11.125 0c-.863 0-1.574.71-1.574 1.574v1.852c0 .863.71 1.574 1.574 1.574h.852a1.58 1.58 0 0 0 1.55-1.348.5.5 0 0 0 .024-.158v-.986a.5.5 0 0 0 0-.008.5.5 0 0 0 0-.008.5.5 0 0 0-.002-.035.5.5 0 0 0-.002-.016.5.5 0 0 0-.008-.049.5.5 0 0 0-.013-.048.5.5 0 0 0-.012-.032.5.5 0 0 0-.006-.015.5.5 0 0 0-.004-.006.5.5 0 0 0-.045-.08.5.5 0 0 0-.021-.027.5.5 0 0 0-.01-.012.5.5 0 0 0-.023-.026.5.5 0 0 0-.012-.011.5.5 0 0 0-.006-.006.5.5 0 0 0-.031-.026.5.5 0 0 0-.041-.029.5.5 0 0 0-.045-.023.5.5 0 0 0-.045-.02.5.5 0 0 0-.033-.012.5.5 0 0 0-.016-.003.5.5 0 0 0-.033-.008.5.5 0 0 0-.016-.002.5.5 0 0 0-.049-.006.5.5 0 0 0-.035 0h-.984a.5.5 0 1 0 0 1H22v.426a.563.563 0 0 1-.574.574h-.852A.563.563 0 0 1 20 28.43v-1.852c0-.326.248-.574.574-.574H22.5a.5.5 0 1 0 0-1h-1.926z" color="#000" font-family="sans-serif" font-weight="400" overflow="visible" style="line-height:normal;text-indent:0;text-align:start;text-decoration-line:none;text-decoration-style:solid;text-decoration-color:#000;text-transform:none;block-progression:tb;isolation:auto;mix-blend-mode:normal"/></svg>