<svg xmlns="http://www.w3.org/2000/svg" viewBox="0 0 32 32"><path fill="#e9eded" fill-rule="evenodd" stroke="#64748b" stroke-linecap="round" stroke-linejoin="round" d="M26.496 7.504v21.5c0 .83-.669 1.5-1.5 1.5h-18c-.83 0-1.5-.67-1.5-1.5v-26c0-.831.67-1.5 1.5-1.5h13.5z"/><path fill="#64748b" d="M5 24.004v5c0 1.108.892 2 2 2h18c1.108 0 2-.892 2-2v-5H5z"/><path fill="#64748b" stroke="#64748b" stroke-linecap="round" stroke-linejoin="round" d="M26.496 7.504h-4.5c-.83 0-1.5-.67-1.5-1.5v-4.5"/><path fill="#64748b" fill-rule="evenodd" d="M7.475 1024.363a.5.5 0 1 0 .051 1h4.992a.5.5 0 1 0 0-1H7.526a.5.5 0 0 0-.05 0zm0 2a.5.5 0 1 0 .051 1h9a.5.5 0 1 0 0-1h-9a.5.5 0 0 0-.05 0zm0 3a.5.5 0 1 0 .051 1h4a.5.5 0 1 0 0-1h-4a.5.5 0 0 0-.05 0zm6 0a.5.5 0 1 0 .051 1h1a.5.5 0 1 0 0-1h-1a.5.5 0 0 0-.05 0zm3 0a.5.5 0 1 0 .051 1h7.992a.5.5 0 1 0 0-1h-7.992a.5.5 0 0 0-.05 0zm-9 2a.5.5 0 1 0 .051 1h6a.5.5 0 1 0 0-1h-6a.5.5 0 0 0-.05 0zm8 0a.5.5 0 1 0 .051 1h1a.5.5 0 1 0 0-1h-1a.5.5 0 0 0-.05 0zm3 0a.5.5 0 1 0 .051 1h5.992a.5.5 0 1 0 0-1h-5.992a.5.5 0 0 0-.05 0zm-11 2a.5.5 0 1 0 .051 1h8a.5.5 0 1 0 0-1h-8a.5.5 0 0 0-.05 0zm10 0a.5.5 0 1 0 .051 1h1a.5.5 0 1 0 0-1h-1a.5.5 0 0 0-.05 0zm3 0a.5.5 0 1 0 .051 1h3.992a.5.5 0 1 0 0-1h-3.992a.5.5 0 0 0-.05 0zm-13 2a.5.5 0 1 0 .051 1h4a.5.5 0 1 0 0-1h-4a.5.5 0 0 0-.05 0zm6 0a.5.5 0 1 0 .051 1h1a.5.5 0 1 0 0-1h-1a.5.5 0 0 0-.05 0zm3 0a.5.5 0 1 0 .051 1H24.518a.5.5 0 0 0 0-1h-7.992a.5.5 0 0 0-.05 0z" color="#000" font-family="sans-serif" font-weight="400" overflow="visible" style="line-height:normal;text-indent:0;text-align:start;text-decoration-line:none;text-decoration-style:solid;text-decoration-color:#000;text-transform:none;block-progression:tb;isolation:auto;mix-blend-mode:normal" transform="translate(0 -1020.362)"/><path fill="#e9eded" fill-rule="evenodd" d="M12.52 1045.35a.5.5 0 0 0-.051 0 .5.5 0 0 0-.367.805l1.273 1.701-1.273 1.7a.5.5 0 0 0 .8.6L14 1048.69l1.098 1.465a.5.5 0 0 0 .8-.6l-1.273-1.699 1.273-1.7a.5.5 0 0 0-.433-.806.5.5 0 0 0-.367.206L14 1047.02l-1.098-1.465a.5.5 0 0 0-.382-.207zm-3.02 0a.5.5 0 0 0-.105.013h-.887a.5.5 0 1 0 0 1h.5v3.49a.5.5 0 1 0 1 0v-3.49h.5a.5.5 0 1 0 0-1h-.893a.5.5 0 0 0-.115-.013zm8.992 0a.5.5 0 0 0-.105.013h-.895a.5.5 0 1 0 0 1H18v3.49a.5.5 0 1 0 1 0v-3.49h.492a.5.5 0 1 0 0-1h-.885a.5.5 0 0 0-.115-.013z" color="#000" font-family="sans-serif" font-weight="400" overflow="visible" style="line-height:normal;text-indent:0;text-align:start;text-decoration-line:none;text-decoration-style:solid;text-decoration-color:#000;text-transform:none;block-progression:tb;isolation:auto;mix-blend-mode:normal" transform="translate(0 -1020.362)"/></svg>