<svg xmlns="http://www.w3.org/2000/svg" data-name="Layer 1" viewBox="0 0 64 64"><path fill="#36c" d="M42.37 17.63h11L37.12 1.09v11.3a5.25 5.25 0 0 0 5.25 5.24Z"/><path fill="#3b4551" d="M49.88 35.56a15.73 15.73 0 0 1 3.44 2.13V20.94h-3.44zM15.26 57.1a4.45 4.45 0 0 1-4.44-4.44V9a4.45 4.45 0 0 1 4.44-4.44h18.55V1.09H15.26A7.89 7.89 0 0 0 7.38 9v43.66a7.89 7.89 0 0 0 7.88 7.88h16.91a15.71 15.71 0 0 1-2.49-3.44z"/><path fill="#36c" d="M47.06 37.16a13.12 13.12 0 1 0 9.56 12.63 13.15 13.15 0 0 0-9.56-12.63Zm-3.21 23.53a2.23 2.23 0 1 1 2.23-2.23 2.23 2.23 0 0 1-2.23 2.23Zm1.28-12.34v4.57a1.26 1.26 0 0 1-2.53 0V46.2h.94a1.93 1.93 0 0 0 1.8-1.93 1.88 1.88 0 0 0-1.83-1.83 1.93 1.93 0 0 0-1.93 1.81.91.91 0 0 1-.9.83H40a.9.9 0 0 1-.9-1 4.48 4.48 0 0 1 4.42-4.2 4.42 4.42 0 0 1 3.57 1.85 4.37 4.37 0 0 1 .82 2.54 4.31 4.31 0 0 1-.82 2.56 4.52 4.52 0 0 1-1.95 1.52Z"/></svg>