<svg xmlns="http://www.w3.org/2000/svg" viewBox="0 0 32 32"><path fill="#e9eded" fill-rule="evenodd" stroke="#4bbfeb" stroke-linecap="round" stroke-linejoin="round" d="M26.498 7.504v21.5c0 .83-.669 1.5-1.5 1.5h-18c-.83 0-1.5-.67-1.5-1.5v-26c0-.831.67-1.5 1.5-1.5h13.5z"/><path fill="#4bbfeb" d="M4.998 24.004v5c0 1.108.892 2 2 2h18c1.108 0 2-.892 2-2v-5h-22z"/><path fill="#4bbfeb" stroke="#4bbfeb" stroke-linecap="round" stroke-linejoin="round" d="M26.495 7.504h-4.5c-.831 0-1.5-.67-1.5-1.5v-4.5"/><path fill="#4bbfeb" fill-rule="evenodd" d="M15.498 7v1h-1v1h1v1h-1v1h1v1h-1v1h1v1h-1v1h1v1h-1v1h1v1h-.5a.5.5 0 0 0-.5.5v.965a.5.5 0 0 0 0 .035v1c0 .822.678 1.5 1.5 1.5s1.5-.678 1.5-1.5v-.467a.5.5 0 0 0 0-.033v-1.5a.5.5 0 0 0-.5-.5h-.5v-1h1v-1h-1v-1h1v-1h-1v-1h1v-1h-1v-1h1v-1h-1V9h1V8h-1V7h-1zm0 12h1v1.5c0 .286-.214.5-.5.5a.488.488 0 0 1-.5-.5v-.467a.5.5 0 0 0 0-.033v-1z" color="#000" font-family="sans-serif" font-weight="400" overflow="visible" style="line-height:normal;text-indent:0;text-align:start;text-decoration-line:none;text-decoration-style:solid;text-decoration-color:#000;text-transform:none;block-progression:tb;isolation:auto;mix-blend-mode:normal"/><path fill="#e9eded" fill-rule="evenodd" d="M13.49 24.99a.5.5 0 0 0-.492.506v4.002a.5.5 0 1 0 1 0v-4.002a.5.5 0 0 0-.508-.506zm-1.978.008a.5.5 0 0 0-.051.002H8.506a.5.5 0 1 0 0 1h1.992l-2.363 3.154a.5.5 0 0 0 .303.838.5.5 0 0 0 .01.002.5.5 0 0 0 .058.004h2.988a.5.5 0 1 0 0-1H9.502l2.363-3.156a.5.5 0 0 0-.115-.776.5.5 0 0 0-.03-.015.5.5 0 0 0-.015-.008.5.5 0 0 0-.03-.012.5.5 0 0 0-.017-.006.5.5 0 0 0-.146-.027zm4.986.006c-.774 0-1.411.603-1.484 1.36l-.002.009a.5.5 0 0 0-.014.125v3a.5.5 0 1 0 1 0V27.91c.157.057.324.094.5.094.823 0 1.5-.678 1.5-1.5 0-.823-.677-1.5-1.5-1.5zm0 1c.282 0 .5.218.5.5 0 .282-.218.5-.5.5a.493.493 0 0 1-.5-.5v-.006a.493.493 0 0 1 .5-.494z" color="#000" font-family="sans-serif" font-weight="400" overflow="visible" style="line-height:normal;text-indent:0;text-align:start;text-decoration-line:none;text-decoration-style:solid;text-decoration-color:#000;text-transform:none;block-progression:tb;isolation:auto;mix-blend-mode:normal"/></svg>